<svg id="visual" viewBox="0 0 1350 900" width="1350" height="900" xmlns="http://www.w3.org/2000/svg" xmlns:xlink="http://www.w3.org/1999/xlink" version="1.1"><rect x="0" y="0" width="1350" height="900" fill="#001220"></rect><path d="M0 606L45 607.3C90 608.7 180 611.3 270 607.2C360 603 450 592 540 589.7C630 587.3 720 593.7 810 591.2C900 588.7 990 577.3 1080 581.8C1170 586.3 1260 606.7 1305 616.8L1350 627L1350 901L1305 901C1260 901 1170 901 1080 901C990 901 900 901 810 901C720 901 630 901 540 901C450 901 360 901 270 901C180 901 90 901 45 901L0 901Z" fill="#fa7268"></path><path d="M0 639L45 637.8C90 636.7 180 634.3 270 642.5C360 650.7 450 669.3 540 670.5C630 671.7 720 655.3 810 657.2C900 659 990 679 1080 685.2C1170 691.3 1260 683.7 1305 679.8L1350 676L1350 901L1305 901C1260 901 1170 901 1080 901C990 901 900 901 810 901C720 901 630 901 540 901C450 901 360 901 270 901C180 901 90 901 45 901L0 901Z" fill="#ef5f67"></path><path d="M0 748L45 741.8C90 735.7 180 723.3 270 713C360 702.7 450 694.3 540 691.5C630 688.7 720 691.3 810 693.3C900 695.3 990 696.7 1080 704.7C1170 712.7 1260 727.3 1305 734.7L1350 742L1350 901L1305 901C1260 901 1170 901 1080 901C990 901 900 901 810 901C720 901 630 901 540 901C450 901 360 901 270 901C180 901 90 901 45 901L0 901Z" fill="#e34c67"></path><path d="M0 774L45 774.7C90 775.3 180 776.7 270 777.2C360 777.7 450 777.3 540 780.8C630 784.3 720 791.7 810 794.8C900 798 990 797 1080 792.2C1170 787.3 1260 778.7 1305 774.3L1350 770L1350 901L1305 901C1260 901 1170 901 1080 901C990 901 900 901 810 901C720 901 630 901 540 901C450 901 360 901 270 901C180 901 90 901 45 901L0 901Z" fill="#d53867"></path><path d="M0 834L45 834.8C90 835.7 180 837.3 270 833.3C360 829.3 450 819.7 540 819C630 818.3 720 826.7 810 829.5C900 832.3 990 829.7 1080 828C1170 826.3 1260 825.7 1305 825.3L1350 825L1350 901L1305 901C1260 901 1170 901 1080 901C990 901 900 901 810 901C720 901 630 901 540 901C450 901 360 901 270 901C180 901 90 901 45 901L0 901Z" fill="#c62368"></path></svg>